:SAMPLES-PER-SECOND 30
:FRAME-RANGE 1-3358
:FULLY-SPECIFIED
:DEGREES
1680
root  -9.99113 38.4772 36.5062 -173.668 21.554 -179.23
RightUpLeg  -15.2384 -8.49361 -11.4233
RightLeg  14.869 4.33681 -0.186173
RightFoot  -10.8933 -0.173163 24.7843
RightToes  -5.8209e-011 0 -3.6325e-017
Spine  13.2252 -2.88194 6.11055
Spine1  -4.35154 -2.0872 -2.39441
HEad  0.657549 22.5698 -2.56965
LeftShoulder1  1.45703 -0.305526 -32.1985
LeftArm  -23.4774 -5.89672 -19.3338
LeftForeArm  -14.8057 -38.0174 -9.59379
LeftHand  1.64159 -2.94268 -22.3906
RightShoulder  0.887433 -0.771767 26.6528
RightArm  -31.3011 -2.98025 -3.73169
RightForeArm  -17.3526 -0.696639 8.13106
RightHand  1.25666 3.83449 15.4441
LeftUpLeg  -28.7572 17.902 8.17993
LeftLeg  46.4188 -1.80268 -1.61494
LeftFoot  -8.56144 0.372866 -13.2129
LeftToes  -4.03819e-010 -8.71445e-011 8.52097e-011
1681
root  -10.3897 38.4614 36.1978 -173.063 22.2877 -179.723
RightUpLeg  -15.4879 -8.61176 -12.6272
RightLeg  13.7959 4.89961 -0.193426
RightFoot  -11.0734 -0.138074 26.0774
RightToes  -5.8209e-011 0 -3.6325e-017
Spine  13.9136 -2.75831 4.39378
Spine1  -4.78233 -2.1586 -2.35365
HEad  -1.22774 20.6896 -1.86638
LeftShoulder1  1.54706 -0.538429 -32.2251
LeftArm  -20.5006 -7.75256 -20.4305
LeftForeArm  -16.3431 -36.0504 -9.05759
LeftHand  1.69308 -3.10335 -22.6393
RightShoulder  1.07351 -0.173519 26.3398
RightArm  -31.962 -2.55174 -3.61396
RightForeArm  -17.0629 -0.378345 7.95901
RightHand  1.3096 4.10725 15.619
LeftUpLeg  -29.2687 15.352 9.58549
LeftLeg  40.741 -2.8733 -2.26872
LeftFoot  -9.61727 0.243888 -12.3535
LeftToes  -4.03819e-010 -8.71445e-011 8.52097e-011
1682
root  -10.8529 38.2755 35.8809 -172.349 23.1567 -179.874
RightUpLeg  -16.9406 -6.49414 -13.941
RightLeg  14.9508 3.72213 -0.251043
RightFoot  -11.4348 -0.0565725 26.5413
RightToes  -5.8209e-011 0 -3.6325e-017
Spine  14.9538 -2.66035 2.53268
Spine1  -5.31359 -2.31966 -1.90398
HEad  -3.50345 19.2399 -1.1958
LeftShoulder1  1.60249 -0.69928 -32.0815
LeftArm  -19.6907 -9.26118 -21.367
LeftForeArm  -15.5169 -35.2992 -8.79063
LeftHand  1.77741 -3.54024 -22.574
RightShoulder  1.31556 0.597613 26.1305
RightArm  -32.662 -2.13395 -3.53092
RightForeArm  -17.3554 -0.385982 7.72798
RightHand  1.3238 4.14301 15.7277
LeftUpLeg  -29.6779 11.4859 11.9169
LeftLeg  35.6151 -4.15205 -2.8308
LeftFoot  -10.9101 0.108278 -11.4235
LeftToes  -4.03819e-010 -8.71445e-011 8.52097e-011
1683
root  -11.4096 37.9174 35.5108 -171.734 24.0397 -179.405
RightUpLeg  -18.8001 -2.27 -15.4191
RightLeg  17.576 0.677533 -0.381615
RightFoot  -11.9199 0.0540758 26.4816
RightToes  -5.8209e-011 0 -3.6325e-017
Spine  16.0382 -2.58865 1.30159
Spine1  -5.27701 -2.44625 -1.47391
HEad  -5.85736 17.6139 -0.0551366
LeftShoulder1  1.65223 -0.882606 -31.6234
LeftArm  -20.4153 -11.0003 -22.0379
LeftForeArm  -13.0604 -35.6963 -8.78359
LeftHand  1.83282 -4.05256 -21.991
RightShoulder  1.5383 1.29077 26.1145
RightArm  -33.1193 -1.79111 -3.55755
RightForeArm  -17.347 -0.58781 7.54152
RightHand  1.34352 4.21025 15.8473
LeftUpLeg  -30.1634 7.61639 14.9816
LeftLeg  32.4702 -5.37038 -3.32479
LeftFoot  -12.5549 -0.0372337 -10.5758
LeftToes  -4.03819e-010 -8.71445e-011 8.52097e-011
1684
root  -12.0952 37.4475 35.0243 -171.278 24.819 -178.728
RightUpLeg  -20.4163 -0.0269466 -16.736
RightLeg  20.323 -0.274338 -0.327373
RightFoot  -12.4363 0.174908 26.7796
RightToes  -5.8209e-011 0 -3.6325e-017
Spine  17.1689 -2.59927 0.527853
Spine1  -5.20026 -2.61402 -1.10897
HEad  -7.9523 15.9849 1.29998
LeftShoulder1  1.66555 -0.995754 -30.9699
LeftArm  -21.004 -12.8029 -22.6521
LeftForeArm  -10.8545 -36.9248 -9.03975
LeftHand  1.79864 -4.16179 -21.3359
RightShoulder  1.66104 1.66541 26.156
RightArm  -33.1751 -1.52871 -3.67992
RightForeArm  -16.8812 -0.958992 7.47349
RightHand  1.34889 4.3065 15.7476
LeftUpLeg  -30.9884 4.89387 17.4437
LeftLeg  32.1019 -5.98656 -3.68939
LeftFoot  -13.7896 -0.130077 -9.92547
LeftToes  -4.03819e-010 -8.71445e-011 8.52097e-011
1685
root  -12.9464 36.9189 34.3694 -170.769 25.544 -177.729
RightUpLeg  -21.2591 0.510709 -17.7921
RightLeg  21.9315 0.425226 -0.0291727
RightFoot  -12.7173 0.252096 27.7538
RightToes  -5.8209e-011 0 -3.6325e-017
Spine  17.9884 -2.66735 0.267424
Spine1  -5.27146 -2.82512 -0.479948
HEad  -9.11109 14.2467 2.84612
LeftShoulder1  1.69551 -1.17456 -30.1895
LeftArm  -21.5294 -14.1542 -23.5674
LeftForeArm  -8.54901 -37.9639 -9.23785
LeftHand  1.90156 -4.7477 -21.2227
RightShoulder  1.64793 1.61863 26.1963
RightArm  -33.196 -1.17788 -3.88698
RightForeArm  -16.2801 -1.55269 7.38908
RightHand  1.39657 4.52266 15.9393
LeftUpLeg  -31.9361 3.90934 18.7437
LeftLeg  34.5911 -6.54599 -4.48121
LeftFoot  -14.6271 -0.194478 -9.81071
LeftToes  -4.03819e-010 -8.71445e-011 8.52097e-011
1686
root  -14.0037 36.3836 33.4923 -169.72 26.5006 -175.937
RightUpLeg  -21.3667 0.609962 -18.4512
RightLeg  21.7502 1.07402 0.253882
RightFoot  -12.1109 0.11721 29.2497
RightToes  -5.8209e-011 0 -3.6325e-017
Spine  17.8406 -2.81291 1.02647
Spine1  -5.02908 -3.00864 0.347672
HEad  -9.30673 12.5798 4.61813
LeftShoulder1  1.70703 -1.32209 -29.3082
LeftArm  -21.6573 -14.5704 -24.8494
LeftForeArm  -6.59278 -39.2812 -9.5514
LeftHand  1.98566 -5.00861 -21.5883
RightShoulder  1.59426 1.44028 26.2793
RightArm  -33.2673 -0.846973 -4.06822
RightForeArm  -16.3975 -2.0852 7.30688
RightHand  1.42966 4.6494 16.1059
LeftUpLeg  -32.6292 4.77355 19.0952
LeftLeg  38.9014 -7.60584 -6.17132
LeftFoot  -15.9954 -0.396223 -12.0653
LeftToes  -4.03819e-010 -8.71445e-011 8.52097e-011
1687
root  -15.073 36.1946 32.5107 -169.172 27.9898 -175.263
RightUpLeg  -19.5888 0.728277 -19.9937
RightLeg  17.5586 1.5926 0.113421
RightFoot  -9.6562 -0.528968 30.7265
RightToes  -5.8209e-011 0 -3.6325e-017
Spine  17.687 -2.72618 -0.716339
Spine1  -4.87191 -3.11393 0.939946
HEad  -9.04942 10.9604 6.78606
LeftShoulder1  1.69166 -1.31599 -29.0288
LeftArm  -21.6326 -14.2908 -25.5462
LeftForeArm  -5.08804 -40.9013 -10.0086
LeftHand  2.09492 -5.45967 -21.8058
RightShoulder  1.52385 1.22792 26.2428
RightArm  -33.7404 -0.524547 -4.13884
RightForeArm  -16.5721 -2.69689 7.03666
RightHand  1.47941 4.77005 16.4642
LeftUpLeg  -33.122 5.23484 17.6711
LeftLeg  42.753 -6.76584 -6.26761
LeftFoot  -20.5634 -0.983164 -13.6595
LeftToes  -4.03819e-010 -8.71445e-011 8.52097e-011
1688
root  -16.3187 36.0065 31.3663 -169.147 30.0457 -175.146
RightUpLeg  -17.1176 -5.90291 -19.8565
RightLeg  11.5737 8.68267 -1.64713
RightFoot  -5.84564 -1.6035 31.7765
RightToes  -5.8209e-011 0 -3.6325e-017
Spine  16.9836 -2.29515 -2.80942
Spine1  -4.30068 -3.27241 2.96217
HEad  -8.90559 8.98313 9.20739
LeftShoulder1  1.73248 -1.44795 -28.9169
LeftArm  -20.9152 -13.6019 -25.6109
LeftForeArm  -3.16536 -42.123 -10.3213
LeftHand  2.19399 -5.82585 -22.0725
RightShoulder  1.42857 0.971468 25.9544
RightArm  -33.8288 -0.581411 -4.0171
RightForeArm  -17.2161 -3.53012 6.83829
RightHand  1.49839 4.70015 16.795
LeftUpLeg  -33.8084 6.92647 14.6204
LeftLeg  46.5385 -5.81999 -6.12779
LeftFoot  -20.9779 -0.753348 -10.4036
LeftToes  -4.03819e-010 -8.71445e-011 8.52097e-011
1689
root  -17.5165 36.0816 30.1138 -169.54 32.9493 -174.94
RightUpLeg  -13.5896 -13.2237 -19.5218
RightLeg  2.69297 12.488 -4.19454
RightFoot  1.80141 -3.78574 32.1607
RightToes  -5.8209e-011 0 -3.6325e-017
Spine  16.0666 -1.89841 -4.1954
Spine1  -3.82748 -3.08178 3.60448
HEad  -7.61871 6.69625 10.9039
LeftShoulder1  1.75515 -1.60425 -28.2771
LeftArm  -18.4438 -11.6737 -25.4862
LeftForeArm  -1.84272 -42.3424 -10.3173
LeftHand  2.28619 -6.37512 -21.9062
RightShoulder  1.21013 0.384702 25.1369
RightArm  -33.8009 -0.414952 -3.679
RightForeArm  -17.9148 -4.78108 6.65741
RightHand  1.49339 4.55171 16.9961
LeftUpLeg  -32.3004 9.64139 11.5028
LeftLeg  48.0272 -5.17092 -5.70275
LeftFoot  -22.6553 -0.668716 -8.11125
LeftToes  -4.03819e-010 -8.71445e-011 8.52097e-011
1690
root  -18.695 36.3893 28.8302 -168.182 37.1634 -173.499
RightUpLeg  -12.7195 -15.4275 -19.3764
RightLeg  -2.16931 -0.0943397 -1.30226
RightFoot  12.5988 -5.36917 25.3654
RightToes  -5.8209e-011 0 -3.6325e-017
Spine  14.6533 -1.62177 -3.36174
Spine1  -4.49024 -2.57895 3.48639
HEad  -6.03945 5.43757 11.4393
LeftShoulder1  1.73003 -1.52119 -28.3461
LeftArm  -15.2128 -8.07691 -24.1939
LeftForeArm  -0.865623 -42.4227 -10.2843
LeftHand  2.1777 -6.23512 -21.1301
RightShoulder  1.09356 0.0706935 24.5968
RightArm  -33.8282 -0.310771 -3.9097
RightForeArm  -19.1658 -5.29138 6.58931
RightHand  1.3991 4.17877 16.5609
LeftUpLeg  -30.7 12.9113 9.18309
LeftLeg  47.4627 -4.03998 -4.27801
LeftFoot  -23.6115 -0.47692 -5.75123
LeftToes  -4.03819e-010 -8.71445e-011 8.52097e-011
